<mxfile host="app.diagrams.net" agent="Mozilla/5.0 (Windows NT 10.0; Win64; x64; rv:128.0) Gecko/20100101 Firefox/128.0" version="24.7.4">
  <diagram name="Page-1" id="16e2658f-23c8-b752-8be9-c03fbebb8bbe">
    <mxGraphModel dx="1185" dy="637" grid="1" gridSize="10" guides="1" tooltips="1" connect="1" arrows="1" fold="1" page="1" pageScale="1" pageWidth="1100" pageHeight="850" background="none" math="0" shadow="0">
      <root>
        <mxCell id="0" />
        <mxCell id="1" parent="0" />
        <mxCell id="g2Q_208xarCO59cymIMF-19" value="" style="html=1;shape=mxgraph.electrical.electro-mechanical.singleSwitch;aspect=fixed;elSwitchState=off;rotation=0;" vertex="1" parent="1">
          <mxGeometry x="370" y="664" width="80" height="20" as="geometry" />
        </mxCell>
        <mxCell id="g2Q_208xarCO59cymIMF-20" value="Flame Sensor" style="rounded=0;whiteSpace=wrap;html=1;" vertex="1" parent="1">
          <mxGeometry x="190" y="340" width="80" height="40" as="geometry" />
        </mxCell>
        <mxCell id="g2Q_208xarCO59cymIMF-21" value="Ambient Light&lt;br&gt;Sensor" style="rounded=0;whiteSpace=wrap;html=1;" vertex="1" parent="1">
          <mxGeometry x="190" y="420" width="80" height="40" as="geometry" />
        </mxCell>
        <mxCell id="g2Q_208xarCO59cymIMF-25" value="" style="pointerEvents=1;verticalLabelPosition=bottom;shadow=0;dashed=0;align=center;html=1;verticalAlign=top;shape=mxgraph.electrical.miscellaneous.batteryStack;" vertex="1" parent="1">
          <mxGeometry x="170" y="650" width="100" height="60" as="geometry" />
        </mxCell>
        <mxCell id="g2Q_208xarCO59cymIMF-26" value="" style="pointerEvents=1;verticalLabelPosition=bottom;shadow=0;dashed=0;align=center;html=1;verticalAlign=top;shape=mxgraph.electrical.miscellaneous.batteryStack;" vertex="1" parent="1">
          <mxGeometry x="270" y="650" width="100" height="60" as="geometry" />
        </mxCell>
        <mxCell id="g2Q_208xarCO59cymIMF-28" value="3.7V 1100mAh" style="text;html=1;align=center;verticalAlign=middle;whiteSpace=wrap;rounded=0;" vertex="1" parent="1">
          <mxGeometry x="290" y="610" width="60" height="30" as="geometry" />
        </mxCell>
        <mxCell id="g2Q_208xarCO59cymIMF-29" value="3.7V 1100mAh" style="text;html=1;align=center;verticalAlign=middle;whiteSpace=wrap;rounded=0;" vertex="1" parent="1">
          <mxGeometry x="190" y="610" width="60" height="30" as="geometry" />
        </mxCell>
        <mxCell id="g2Q_208xarCO59cymIMF-63" value="" style="group" vertex="1" connectable="0" parent="1">
          <mxGeometry x="470" y="200" width="340" height="460" as="geometry" />
        </mxCell>
        <mxCell id="g2Q_208xarCO59cymIMF-55" value="Arduino Nano 33IoT" style="rounded=0;whiteSpace=wrap;html=1;" vertex="1" parent="g2Q_208xarCO59cymIMF-63">
          <mxGeometry x="10" width="320" height="360" as="geometry" />
        </mxCell>
        <mxCell id="g2Q_208xarCO59cymIMF-23" value="" style="verticalLabelPosition=bottom;shadow=0;dashed=0;align=center;html=1;verticalAlign=top;shape=mxgraph.electrical.radio.aerial_-_antenna_1;direction=west;" vertex="1" parent="g2Q_208xarCO59cymIMF-63">
          <mxGeometry x="154" y="360" width="32" height="40" as="geometry" />
        </mxCell>
        <mxCell id="g2Q_208xarCO59cymIMF-47" value="" style="ellipse;whiteSpace=wrap;html=1;aspect=fixed;" vertex="1" parent="g2Q_208xarCO59cymIMF-63">
          <mxGeometry y="30" width="20" height="20" as="geometry" />
        </mxCell>
        <mxCell id="g2Q_208xarCO59cymIMF-48" value="" style="ellipse;whiteSpace=wrap;html=1;aspect=fixed;" vertex="1" parent="g2Q_208xarCO59cymIMF-63">
          <mxGeometry y="70" width="20" height="20" as="geometry" />
        </mxCell>
        <mxCell id="g2Q_208xarCO59cymIMF-49" value="" style="ellipse;whiteSpace=wrap;html=1;aspect=fixed;" vertex="1" parent="g2Q_208xarCO59cymIMF-63">
          <mxGeometry y="110" width="20" height="20" as="geometry" />
        </mxCell>
        <mxCell id="g2Q_208xarCO59cymIMF-50" value="" style="ellipse;whiteSpace=wrap;html=1;aspect=fixed;" vertex="1" parent="g2Q_208xarCO59cymIMF-63">
          <mxGeometry y="150" width="20" height="20" as="geometry" />
        </mxCell>
        <mxCell id="g2Q_208xarCO59cymIMF-51" value="" style="ellipse;whiteSpace=wrap;html=1;aspect=fixed;" vertex="1" parent="g2Q_208xarCO59cymIMF-63">
          <mxGeometry y="190" width="20" height="20" as="geometry" />
        </mxCell>
        <mxCell id="g2Q_208xarCO59cymIMF-52" value="" style="ellipse;whiteSpace=wrap;html=1;aspect=fixed;" vertex="1" parent="g2Q_208xarCO59cymIMF-63">
          <mxGeometry y="230" width="20" height="20" as="geometry" />
        </mxCell>
        <mxCell id="g2Q_208xarCO59cymIMF-53" value="" style="ellipse;whiteSpace=wrap;html=1;aspect=fixed;" vertex="1" parent="g2Q_208xarCO59cymIMF-63">
          <mxGeometry y="270" width="20" height="20" as="geometry" />
        </mxCell>
        <mxCell id="g2Q_208xarCO59cymIMF-54" value="" style="ellipse;whiteSpace=wrap;html=1;aspect=fixed;" vertex="1" parent="g2Q_208xarCO59cymIMF-63">
          <mxGeometry y="310" width="20" height="20" as="geometry" />
        </mxCell>
        <mxCell id="g2Q_208xarCO59cymIMF-56" value="LSM6DS3&lt;br&gt;Gyro / Accelerometer" style="rounded=0;whiteSpace=wrap;html=1;" vertex="1" parent="g2Q_208xarCO59cymIMF-63">
          <mxGeometry x="110" width="120" height="60" as="geometry" />
        </mxCell>
        <mxCell id="g2Q_208xarCO59cymIMF-57" value="WI-FI 2.4GHz&lt;br&gt;NINA-WIO2" style="rounded=0;whiteSpace=wrap;html=1;" vertex="1" parent="g2Q_208xarCO59cymIMF-63">
          <mxGeometry x="110" y="300" width="120" height="60" as="geometry" />
        </mxCell>
        <mxCell id="g2Q_208xarCO59cymIMF-58" value="" style="ellipse;whiteSpace=wrap;html=1;aspect=fixed;" vertex="1" parent="g2Q_208xarCO59cymIMF-63">
          <mxGeometry x="320" y="150" width="20" height="20" as="geometry" />
        </mxCell>
        <mxCell id="g2Q_208xarCO59cymIMF-59" value="" style="ellipse;whiteSpace=wrap;html=1;aspect=fixed;" vertex="1" parent="g2Q_208xarCO59cymIMF-63">
          <mxGeometry x="320" y="190" width="20" height="20" as="geometry" />
        </mxCell>
        <mxCell id="g2Q_208xarCO59cymIMF-60" value="" style="ellipse;whiteSpace=wrap;html=1;aspect=fixed;" vertex="1" parent="g2Q_208xarCO59cymIMF-63">
          <mxGeometry x="320" y="230" width="20" height="20" as="geometry" />
        </mxCell>
        <mxCell id="g2Q_208xarCO59cymIMF-61" value="" style="ellipse;whiteSpace=wrap;html=1;aspect=fixed;" vertex="1" parent="g2Q_208xarCO59cymIMF-63">
          <mxGeometry x="320" y="270" width="20" height="20" as="geometry" />
        </mxCell>
        <mxCell id="g2Q_208xarCO59cymIMF-62" value="" style="ellipse;whiteSpace=wrap;html=1;aspect=fixed;" vertex="1" parent="g2Q_208xarCO59cymIMF-63">
          <mxGeometry x="320" y="310" width="20" height="20" as="geometry" />
        </mxCell>
        <mxCell id="g2Q_208xarCO59cymIMF-64" value="+3.3V" style="text;html=1;align=left;verticalAlign=middle;whiteSpace=wrap;rounded=0;" vertex="1" parent="g2Q_208xarCO59cymIMF-63">
          <mxGeometry x="20" y="25" width="60" height="30" as="geometry" />
        </mxCell>
        <mxCell id="g2Q_208xarCO59cymIMF-65" value="A4 SCL output" style="text;html=1;align=left;verticalAlign=middle;whiteSpace=wrap;rounded=0;" vertex="1" parent="g2Q_208xarCO59cymIMF-63">
          <mxGeometry x="20" y="65" width="110" height="30" as="geometry" />
        </mxCell>
        <mxCell id="g2Q_208xarCO59cymIMF-66" value="A5 SDA I/O" style="text;html=1;align=left;verticalAlign=middle;whiteSpace=wrap;rounded=0;" vertex="1" parent="g2Q_208xarCO59cymIMF-63">
          <mxGeometry x="20" y="105" width="110" height="30" as="geometry" />
        </mxCell>
        <mxCell id="g2Q_208xarCO59cymIMF-67" value="A1 Input" style="text;html=1;align=left;verticalAlign=middle;whiteSpace=wrap;rounded=0;" vertex="1" parent="g2Q_208xarCO59cymIMF-63">
          <mxGeometry x="20" y="145" width="110" height="30" as="geometry" />
        </mxCell>
        <mxCell id="g2Q_208xarCO59cymIMF-68" value="A6 Input" style="text;html=1;align=left;verticalAlign=middle;whiteSpace=wrap;rounded=0;" vertex="1" parent="g2Q_208xarCO59cymIMF-63">
          <mxGeometry x="20" y="185" width="110" height="30" as="geometry" />
        </mxCell>
        <mxCell id="g2Q_208xarCO59cymIMF-69" value="A7 Input" style="text;html=1;align=left;verticalAlign=middle;whiteSpace=wrap;rounded=0;" vertex="1" parent="g2Q_208xarCO59cymIMF-63">
          <mxGeometry x="20" y="225" width="110" height="30" as="geometry" />
        </mxCell>
        <mxCell id="g2Q_208xarCO59cymIMF-70" value="GND" style="text;html=1;align=left;verticalAlign=middle;whiteSpace=wrap;rounded=0;" vertex="1" parent="g2Q_208xarCO59cymIMF-63">
          <mxGeometry x="20" y="265" width="110" height="30" as="geometry" />
        </mxCell>
        <mxCell id="g2Q_208xarCO59cymIMF-71" value="V&lt;sub&gt;in&lt;/sub&gt;" style="text;html=1;align=left;verticalAlign=middle;whiteSpace=wrap;rounded=0;" vertex="1" parent="g2Q_208xarCO59cymIMF-63">
          <mxGeometry x="20" y="305" width="110" height="30" as="geometry" />
        </mxCell>
        <mxCell id="g2Q_208xarCO59cymIMF-72" value="GND" style="text;html=1;align=right;verticalAlign=middle;whiteSpace=wrap;rounded=0;" vertex="1" parent="g2Q_208xarCO59cymIMF-63">
          <mxGeometry x="210" y="305" width="110" height="30" as="geometry" />
        </mxCell>
        <mxCell id="g2Q_208xarCO59cymIMF-74" value="Output PWM D2 " style="text;html=1;align=right;verticalAlign=middle;whiteSpace=wrap;rounded=0;" vertex="1" parent="g2Q_208xarCO59cymIMF-63">
          <mxGeometry x="210" y="265" width="110" height="30" as="geometry" />
        </mxCell>
        <mxCell id="g2Q_208xarCO59cymIMF-75" value="Input D3" style="text;html=1;align=right;verticalAlign=middle;whiteSpace=wrap;rounded=0;" vertex="1" parent="g2Q_208xarCO59cymIMF-63">
          <mxGeometry x="210" y="225" width="110" height="30" as="geometry" />
        </mxCell>
        <mxCell id="g2Q_208xarCO59cymIMF-76" value="Input D5" style="text;html=1;align=right;verticalAlign=middle;whiteSpace=wrap;rounded=0;" vertex="1" parent="g2Q_208xarCO59cymIMF-63">
          <mxGeometry x="210" y="185" width="110" height="30" as="geometry" />
        </mxCell>
        <mxCell id="g2Q_208xarCO59cymIMF-77" value="Input D11" style="text;html=1;align=right;verticalAlign=middle;whiteSpace=wrap;rounded=0;" vertex="1" parent="g2Q_208xarCO59cymIMF-63">
          <mxGeometry x="210" y="145" width="110" height="30" as="geometry" />
        </mxCell>
        <mxCell id="g2Q_208xarCO59cymIMF-215" value="" style="group;rotation=0;" vertex="1" connectable="0" parent="1">
          <mxGeometry x="320" y="265" width="10" height="30" as="geometry" />
        </mxCell>
        <mxCell id="g2Q_208xarCO59cymIMF-216" value="" style="endArrow=none;html=1;rounded=0;" edge="1" parent="g2Q_208xarCO59cymIMF-215">
          <mxGeometry width="50" height="50" relative="1" as="geometry">
            <mxPoint y="20" as="sourcePoint" />
            <mxPoint y="30" as="targetPoint" />
          </mxGeometry>
        </mxCell>
        <mxCell id="g2Q_208xarCO59cymIMF-217" value="" style="curved=1;endArrow=none;html=1;rounded=0;endFill=0;" edge="1" parent="g2Q_208xarCO59cymIMF-215">
          <mxGeometry width="50" height="50" relative="1" as="geometry">
            <mxPoint y="20" as="sourcePoint" />
            <mxPoint y="10" as="targetPoint" />
            <Array as="points">
              <mxPoint x="10" y="20" />
              <mxPoint x="10" y="10" />
            </Array>
          </mxGeometry>
        </mxCell>
        <mxCell id="g2Q_208xarCO59cymIMF-218" value="" style="endArrow=none;html=1;rounded=0;" edge="1" parent="g2Q_208xarCO59cymIMF-215">
          <mxGeometry width="50" height="50" relative="1" as="geometry">
            <mxPoint as="sourcePoint" />
            <mxPoint y="10" as="targetPoint" />
          </mxGeometry>
        </mxCell>
        <mxCell id="g2Q_208xarCO59cymIMF-219" value="" style="endArrow=none;html=1;rounded=0;exitX=1;exitY=0.25;exitDx=0;exitDy=0;" edge="1" parent="1" source="g2Q_208xarCO59cymIMF-20">
          <mxGeometry width="50" height="50" relative="1" as="geometry">
            <mxPoint x="280" y="390" as="sourcePoint" />
            <mxPoint x="320" y="350" as="targetPoint" />
          </mxGeometry>
        </mxCell>
        <mxCell id="g2Q_208xarCO59cymIMF-220" value="" style="group;rotation=0;" vertex="1" connectable="0" parent="1">
          <mxGeometry x="320" y="330" width="10" height="70" as="geometry" />
        </mxCell>
        <mxCell id="g2Q_208xarCO59cymIMF-221" value="" style="endArrow=none;html=1;rounded=0;" edge="1" parent="g2Q_208xarCO59cymIMF-220">
          <mxGeometry width="50" height="50" relative="1" as="geometry">
            <mxPoint y="46.66666666666666" as="sourcePoint" />
            <mxPoint y="70" as="targetPoint" />
          </mxGeometry>
        </mxCell>
        <mxCell id="g2Q_208xarCO59cymIMF-222" value="" style="curved=1;endArrow=none;html=1;rounded=0;endFill=0;" edge="1" parent="g2Q_208xarCO59cymIMF-220">
          <mxGeometry width="50" height="50" relative="1" as="geometry">
            <mxPoint y="46.66666666666666" as="sourcePoint" />
            <mxPoint y="23.33333333333333" as="targetPoint" />
            <Array as="points">
              <mxPoint x="10" y="46.66666666666666" />
              <mxPoint x="10" y="23.33333333333333" />
            </Array>
          </mxGeometry>
        </mxCell>
        <mxCell id="g2Q_208xarCO59cymIMF-223" value="" style="endArrow=none;html=1;rounded=0;" edge="1" parent="g2Q_208xarCO59cymIMF-220">
          <mxGeometry width="50" height="50" relative="1" as="geometry">
            <mxPoint as="sourcePoint" />
            <mxPoint y="23.33333333333333" as="targetPoint" />
          </mxGeometry>
        </mxCell>
        <mxCell id="g2Q_208xarCO59cymIMF-257" value="" style="endArrow=none;html=1;rounded=0;" edge="1" parent="g2Q_208xarCO59cymIMF-220">
          <mxGeometry width="50" height="50" relative="1" as="geometry">
            <mxPoint x="-20" y="100" as="sourcePoint" />
            <mxPoint y="70" as="targetPoint" />
            <Array as="points">
              <mxPoint y="100" />
            </Array>
          </mxGeometry>
        </mxCell>
        <mxCell id="g2Q_208xarCO59cymIMF-224" value="" style="endArrow=none;html=1;rounded=0;exitX=1;exitY=0.25;exitDx=0;exitDy=0;" edge="1" parent="1">
          <mxGeometry width="50" height="50" relative="1" as="geometry">
            <mxPoint x="270" y="359.9" as="sourcePoint" />
            <mxPoint x="300" y="359.9" as="targetPoint" />
          </mxGeometry>
        </mxCell>
        <mxCell id="g2Q_208xarCO59cymIMF-225" value="" style="endArrow=none;html=1;rounded=0;exitX=1;exitY=0.25;exitDx=0;exitDy=0;" edge="1" parent="1">
          <mxGeometry width="50" height="50" relative="1" as="geometry">
            <mxPoint x="270" y="370" as="sourcePoint" />
            <mxPoint x="300" y="370" as="targetPoint" />
          </mxGeometry>
        </mxCell>
        <mxCell id="g2Q_208xarCO59cymIMF-226" value="" style="endArrow=none;html=1;rounded=0;exitX=1;exitY=0.25;exitDx=0;exitDy=0;" edge="1" parent="1">
          <mxGeometry width="50" height="50" relative="1" as="geometry">
            <mxPoint x="270" y="429.9" as="sourcePoint" />
            <mxPoint x="300" y="429.9" as="targetPoint" />
          </mxGeometry>
        </mxCell>
        <mxCell id="g2Q_208xarCO59cymIMF-227" value="" style="endArrow=none;html=1;rounded=0;exitX=1;exitY=0.25;exitDx=0;exitDy=0;" edge="1" parent="1">
          <mxGeometry width="50" height="50" relative="1" as="geometry">
            <mxPoint x="270" y="439.9" as="sourcePoint" />
            <mxPoint x="300" y="439.9" as="targetPoint" />
          </mxGeometry>
        </mxCell>
        <mxCell id="g2Q_208xarCO59cymIMF-228" value="" style="endArrow=none;html=1;rounded=0;exitX=1;exitY=0.25;exitDx=0;exitDy=0;" edge="1" parent="1">
          <mxGeometry width="50" height="50" relative="1" as="geometry">
            <mxPoint x="270" y="450" as="sourcePoint" />
            <mxPoint x="300" y="450" as="targetPoint" />
          </mxGeometry>
        </mxCell>
        <mxCell id="g2Q_208xarCO59cymIMF-235" value="" style="endArrow=none;html=1;rounded=0;entryX=0;entryY=0.5;entryDx=0;entryDy=0;" edge="1" parent="1" source="g2Q_208xarCO59cymIMF-341" target="g2Q_208xarCO59cymIMF-47">
          <mxGeometry width="50" height="50" relative="1" as="geometry">
            <mxPoint x="200" y="239.82999999999998" as="sourcePoint" />
            <mxPoint x="230" y="239.82999999999998" as="targetPoint" />
          </mxGeometry>
        </mxCell>
        <mxCell id="g2Q_208xarCO59cymIMF-236" value="" style="endArrow=none;html=1;rounded=0;" edge="1" parent="1">
          <mxGeometry width="50" height="50" relative="1" as="geometry">
            <mxPoint x="200" y="280" as="sourcePoint" />
            <mxPoint x="200" y="270" as="targetPoint" />
          </mxGeometry>
        </mxCell>
        <mxCell id="g2Q_208xarCO59cymIMF-237" value="" style="endArrow=none;html=1;rounded=0;entryX=0;entryY=0.5;entryDx=0;entryDy=0;" edge="1" parent="1" target="g2Q_208xarCO59cymIMF-48">
          <mxGeometry width="50" height="50" relative="1" as="geometry">
            <mxPoint x="200" y="280" as="sourcePoint" />
            <mxPoint x="240" y="300" as="targetPoint" />
          </mxGeometry>
        </mxCell>
        <mxCell id="g2Q_208xarCO59cymIMF-238" value="" style="group;rotation=0;" vertex="1" connectable="0" parent="1">
          <mxGeometry x="320" y="305" width="10" height="30" as="geometry" />
        </mxCell>
        <mxCell id="g2Q_208xarCO59cymIMF-239" value="" style="endArrow=none;html=1;rounded=0;" edge="1" parent="g2Q_208xarCO59cymIMF-238">
          <mxGeometry width="50" height="50" relative="1" as="geometry">
            <mxPoint y="20" as="sourcePoint" />
            <mxPoint y="30" as="targetPoint" />
          </mxGeometry>
        </mxCell>
        <mxCell id="g2Q_208xarCO59cymIMF-240" value="" style="curved=1;endArrow=none;html=1;rounded=0;endFill=0;" edge="1" parent="g2Q_208xarCO59cymIMF-238">
          <mxGeometry width="50" height="50" relative="1" as="geometry">
            <mxPoint y="20" as="sourcePoint" />
            <mxPoint y="10" as="targetPoint" />
            <Array as="points">
              <mxPoint x="10" y="20" />
              <mxPoint x="10" y="10" />
            </Array>
          </mxGeometry>
        </mxCell>
        <mxCell id="g2Q_208xarCO59cymIMF-241" value="" style="endArrow=none;html=1;rounded=0;" edge="1" parent="g2Q_208xarCO59cymIMF-238">
          <mxGeometry width="50" height="50" relative="1" as="geometry">
            <mxPoint as="sourcePoint" />
            <mxPoint y="10" as="targetPoint" />
          </mxGeometry>
        </mxCell>
        <mxCell id="g2Q_208xarCO59cymIMF-242" value="" style="endArrow=none;html=1;rounded=0;" edge="1" parent="1">
          <mxGeometry width="50" height="50" relative="1" as="geometry">
            <mxPoint x="200" y="320" as="sourcePoint" />
            <mxPoint x="200" y="305" as="targetPoint" />
          </mxGeometry>
        </mxCell>
        <mxCell id="g2Q_208xarCO59cymIMF-243" value="" style="endArrow=none;html=1;rounded=0;entryX=0;entryY=0.5;entryDx=0;entryDy=0;" edge="1" parent="1" target="g2Q_208xarCO59cymIMF-49">
          <mxGeometry width="50" height="50" relative="1" as="geometry">
            <mxPoint x="200" y="320" as="sourcePoint" />
            <mxPoint x="270" y="300" as="targetPoint" />
          </mxGeometry>
        </mxCell>
        <mxCell id="g2Q_208xarCO59cymIMF-244" value="" style="endArrow=none;html=1;rounded=0;" edge="1" parent="1" source="g2Q_208xarCO59cymIMF-343">
          <mxGeometry width="50" height="50" relative="1" as="geometry">
            <mxPoint x="320" y="350" as="sourcePoint" />
            <mxPoint x="320" y="330" as="targetPoint" />
          </mxGeometry>
        </mxCell>
        <mxCell id="g2Q_208xarCO59cymIMF-249" value="" style="endArrow=none;html=1;rounded=0;" edge="1" parent="1">
          <mxGeometry width="50" height="50" relative="1" as="geometry">
            <mxPoint x="320" y="310" as="sourcePoint" />
            <mxPoint x="320" y="290" as="targetPoint" />
          </mxGeometry>
        </mxCell>
        <mxCell id="g2Q_208xarCO59cymIMF-251" value="" style="endArrow=none;html=1;rounded=0;" edge="1" parent="1">
          <mxGeometry width="50" height="50" relative="1" as="geometry">
            <mxPoint x="320" y="270" as="sourcePoint" />
            <mxPoint x="320" y="200" as="targetPoint" />
          </mxGeometry>
        </mxCell>
        <mxCell id="g2Q_208xarCO59cymIMF-252" value="" style="endArrow=none;html=1;rounded=0;entryX=0;entryY=0.5;entryDx=0;entryDy=0;" edge="1" parent="1" target="g2Q_208xarCO59cymIMF-50">
          <mxGeometry width="50" height="50" relative="1" as="geometry">
            <mxPoint x="300" y="360" as="sourcePoint" />
            <mxPoint x="400" y="360" as="targetPoint" />
          </mxGeometry>
        </mxCell>
        <mxCell id="g2Q_208xarCO59cymIMF-253" value="" style="endArrow=none;html=1;rounded=0;" edge="1" parent="1">
          <mxGeometry width="50" height="50" relative="1" as="geometry">
            <mxPoint x="300" y="370" as="sourcePoint" />
            <mxPoint x="360" y="370" as="targetPoint" />
          </mxGeometry>
        </mxCell>
        <mxCell id="g2Q_208xarCO59cymIMF-254" value="" style="endArrow=none;html=1;rounded=0;" edge="1" parent="1">
          <mxGeometry width="50" height="50" relative="1" as="geometry">
            <mxPoint x="300" y="440" as="sourcePoint" />
            <mxPoint x="400" y="440" as="targetPoint" />
          </mxGeometry>
        </mxCell>
        <mxCell id="g2Q_208xarCO59cymIMF-255" value="" style="endArrow=none;html=1;rounded=0;" edge="1" parent="1">
          <mxGeometry width="50" height="50" relative="1" as="geometry">
            <mxPoint x="400" y="440" as="sourcePoint" />
            <mxPoint x="400" y="400" as="targetPoint" />
          </mxGeometry>
        </mxCell>
        <mxCell id="g2Q_208xarCO59cymIMF-256" value="" style="endArrow=none;html=1;rounded=0;entryX=0;entryY=0.5;entryDx=0;entryDy=0;" edge="1" parent="1" target="g2Q_208xarCO59cymIMF-51">
          <mxGeometry width="50" height="50" relative="1" as="geometry">
            <mxPoint x="400" y="400" as="sourcePoint" />
            <mxPoint x="410" y="370" as="targetPoint" />
          </mxGeometry>
        </mxCell>
        <mxCell id="g2Q_208xarCO59cymIMF-258" value="" style="endArrow=none;html=1;rounded=0;entryX=0;entryY=0.5;entryDx=0;entryDy=0;" edge="1" parent="1" target="g2Q_208xarCO59cymIMF-53">
          <mxGeometry width="50" height="50" relative="1" as="geometry">
            <mxPoint x="320" y="480" as="sourcePoint" />
            <mxPoint x="440" y="480" as="targetPoint" />
          </mxGeometry>
        </mxCell>
        <mxCell id="g2Q_208xarCO59cymIMF-259" value="" style="group;rotation=0;" vertex="1" connectable="0" parent="1">
          <mxGeometry x="360" y="425" width="10" height="30" as="geometry" />
        </mxCell>
        <mxCell id="g2Q_208xarCO59cymIMF-260" value="" style="endArrow=none;html=1;rounded=0;" edge="1" parent="g2Q_208xarCO59cymIMF-259">
          <mxGeometry width="50" height="50" relative="1" as="geometry">
            <mxPoint y="20" as="sourcePoint" />
            <mxPoint y="30" as="targetPoint" />
          </mxGeometry>
        </mxCell>
        <mxCell id="g2Q_208xarCO59cymIMF-261" value="" style="curved=1;endArrow=none;html=1;rounded=0;endFill=0;" edge="1" parent="g2Q_208xarCO59cymIMF-259">
          <mxGeometry width="50" height="50" relative="1" as="geometry">
            <mxPoint y="20" as="sourcePoint" />
            <mxPoint y="10" as="targetPoint" />
            <Array as="points">
              <mxPoint x="10" y="20" />
              <mxPoint x="10" y="10" />
            </Array>
          </mxGeometry>
        </mxCell>
        <mxCell id="g2Q_208xarCO59cymIMF-262" value="" style="endArrow=none;html=1;rounded=0;" edge="1" parent="g2Q_208xarCO59cymIMF-259">
          <mxGeometry width="50" height="50" relative="1" as="geometry">
            <mxPoint as="sourcePoint" />
            <mxPoint y="10" as="targetPoint" />
          </mxGeometry>
        </mxCell>
        <mxCell id="g2Q_208xarCO59cymIMF-263" value="" style="endArrow=none;html=1;rounded=0;" edge="1" parent="1">
          <mxGeometry width="50" height="50" relative="1" as="geometry">
            <mxPoint x="360" y="480" as="sourcePoint" />
            <mxPoint x="360" y="450" as="targetPoint" />
          </mxGeometry>
        </mxCell>
        <mxCell id="g2Q_208xarCO59cymIMF-264" value="" style="endArrow=none;html=1;rounded=0;" edge="1" parent="1" source="g2Q_208xarCO59cymIMF-347">
          <mxGeometry width="50" height="50" relative="1" as="geometry">
            <mxPoint x="300" y="450" as="sourcePoint" />
            <mxPoint x="360" y="450" as="targetPoint" />
          </mxGeometry>
        </mxCell>
        <mxCell id="g2Q_208xarCO59cymIMF-265" value="" style="endArrow=none;html=1;rounded=0;" edge="1" parent="1">
          <mxGeometry width="50" height="50" relative="1" as="geometry">
            <mxPoint x="360" y="370" as="sourcePoint" />
            <mxPoint x="360" y="430" as="targetPoint" />
          </mxGeometry>
        </mxCell>
        <mxCell id="g2Q_208xarCO59cymIMF-194" value="" style="group;rotation=0;" vertex="1" connectable="0" parent="1">
          <mxGeometry x="170" y="255" width="10" height="30" as="geometry" />
        </mxCell>
        <mxCell id="g2Q_208xarCO59cymIMF-195" value="" style="endArrow=none;html=1;rounded=0;" edge="1" parent="g2Q_208xarCO59cymIMF-194">
          <mxGeometry width="50" height="50" relative="1" as="geometry">
            <mxPoint y="20" as="sourcePoint" />
            <mxPoint y="30" as="targetPoint" />
          </mxGeometry>
        </mxCell>
        <mxCell id="g2Q_208xarCO59cymIMF-196" value="" style="curved=1;endArrow=none;html=1;rounded=0;endFill=0;" edge="1" parent="g2Q_208xarCO59cymIMF-194">
          <mxGeometry width="50" height="50" relative="1" as="geometry">
            <mxPoint y="20" as="sourcePoint" />
            <mxPoint y="10" as="targetPoint" />
            <Array as="points">
              <mxPoint x="10" y="20" />
              <mxPoint x="10" y="10" />
            </Array>
          </mxGeometry>
        </mxCell>
        <mxCell id="g2Q_208xarCO59cymIMF-197" value="" style="endArrow=none;html=1;rounded=0;" edge="1" parent="g2Q_208xarCO59cymIMF-194">
          <mxGeometry width="50" height="50" relative="1" as="geometry">
            <mxPoint as="sourcePoint" />
            <mxPoint y="10" as="targetPoint" />
          </mxGeometry>
        </mxCell>
        <mxCell id="g2Q_208xarCO59cymIMF-210" value="" style="endArrow=none;html=1;rounded=0;" edge="1" parent="g2Q_208xarCO59cymIMF-194">
          <mxGeometry width="50" height="50" relative="1" as="geometry">
            <mxPoint y="14.830000000000013" as="sourcePoint" />
            <mxPoint x="30" y="15" as="targetPoint" />
          </mxGeometry>
        </mxCell>
        <mxCell id="g2Q_208xarCO59cymIMF-267" value="" style="endArrow=none;html=1;rounded=0;" edge="1" parent="1">
          <mxGeometry width="50" height="50" relative="1" as="geometry">
            <mxPoint x="200" y="480" as="sourcePoint" />
            <mxPoint x="320" y="480" as="targetPoint" />
          </mxGeometry>
        </mxCell>
        <mxCell id="g2Q_208xarCO59cymIMF-270" value="" style="endArrow=none;html=1;rounded=0;entryX=0;entryY=0.5;entryDx=0;entryDy=0;" edge="1" parent="1" target="g2Q_208xarCO59cymIMF-25">
          <mxGeometry width="50" height="50" relative="1" as="geometry">
            <mxPoint x="170" y="480" as="sourcePoint" />
            <mxPoint x="170" y="560" as="targetPoint" />
          </mxGeometry>
        </mxCell>
        <mxCell id="g2Q_208xarCO59cymIMF-271" value="" style="endArrow=none;html=1;rounded=0;" edge="1" parent="1">
          <mxGeometry width="50" height="50" relative="1" as="geometry">
            <mxPoint x="450" y="680" as="sourcePoint" />
            <mxPoint x="450" y="630" as="targetPoint" />
          </mxGeometry>
        </mxCell>
        <mxCell id="g2Q_208xarCO59cymIMF-272" value="" style="endArrow=none;html=1;rounded=0;entryX=0;entryY=0.5;entryDx=0;entryDy=0;" edge="1" parent="1" target="g2Q_208xarCO59cymIMF-54">
          <mxGeometry width="50" height="50" relative="1" as="geometry">
            <mxPoint x="450" y="570" as="sourcePoint" />
            <mxPoint x="450" y="520" as="targetPoint" />
            <Array as="points">
              <mxPoint x="450" y="520" />
            </Array>
          </mxGeometry>
        </mxCell>
        <mxCell id="g2Q_208xarCO59cymIMF-287" value="&lt;div&gt;User Input&lt;/div&gt;" style="rounded=0;whiteSpace=wrap;html=1;" vertex="1" parent="1">
          <mxGeometry x="1000" y="320" width="80" height="40" as="geometry" />
        </mxCell>
        <mxCell id="g2Q_208xarCO59cymIMF-288" value="" style="endArrow=none;html=1;rounded=0;" edge="1" parent="1">
          <mxGeometry width="50" height="50" relative="1" as="geometry">
            <mxPoint x="920" y="330" as="sourcePoint" />
            <mxPoint x="1000" y="329.76" as="targetPoint" />
          </mxGeometry>
        </mxCell>
        <mxCell id="g2Q_208xarCO59cymIMF-289" value="" style="endArrow=none;html=1;rounded=0;" edge="1" parent="1">
          <mxGeometry width="50" height="50" relative="1" as="geometry">
            <mxPoint x="840" y="340" as="sourcePoint" />
            <mxPoint x="1000" y="339.65999999999997" as="targetPoint" />
          </mxGeometry>
        </mxCell>
        <mxCell id="g2Q_208xarCO59cymIMF-290" value="" style="endArrow=none;html=1;rounded=0;exitX=1;exitY=0.25;exitDx=0;exitDy=0;" edge="1" parent="1">
          <mxGeometry width="50" height="50" relative="1" as="geometry">
            <mxPoint x="970" y="349.76" as="sourcePoint" />
            <mxPoint x="1000" y="349.76" as="targetPoint" />
          </mxGeometry>
        </mxCell>
        <mxCell id="g2Q_208xarCO59cymIMF-291" value="Speaker&lt;br&gt;Module TBD" style="rounded=0;whiteSpace=wrap;html=1;" vertex="1" parent="1">
          <mxGeometry x="1000" y="460" width="80" height="40" as="geometry" />
        </mxCell>
        <mxCell id="g2Q_208xarCO59cymIMF-295" value="TMP36&lt;br&gt;(temp sensor)" style="rounded=0;whiteSpace=wrap;html=1;flipV=1;" vertex="1" parent="1">
          <mxGeometry x="1000" y="380" width="80" height="40" as="geometry" />
        </mxCell>
        <mxCell id="g2Q_208xarCO59cymIMF-299" value="" style="endArrow=none;html=1;rounded=0;" edge="1" parent="1">
          <mxGeometry width="50" height="50" relative="1" as="geometry">
            <mxPoint x="920" y="390" as="sourcePoint" />
            <mxPoint x="1000" y="389.76" as="targetPoint" />
          </mxGeometry>
        </mxCell>
        <mxCell id="g2Q_208xarCO59cymIMF-300" value="" style="endArrow=none;html=1;rounded=0;exitX=1;exitY=0.5;exitDx=0;exitDy=0;" edge="1" parent="1" source="g2Q_208xarCO59cymIMF-59">
          <mxGeometry width="50" height="50" relative="1" as="geometry">
            <mxPoint x="970" y="399.65999999999997" as="sourcePoint" />
            <mxPoint x="1000" y="399.65999999999997" as="targetPoint" />
          </mxGeometry>
        </mxCell>
        <mxCell id="g2Q_208xarCO59cymIMF-301" value="" style="endArrow=none;html=1;rounded=0;" edge="1" parent="1">
          <mxGeometry width="50" height="50" relative="1" as="geometry">
            <mxPoint x="880" y="410" as="sourcePoint" />
            <mxPoint x="1000" y="409.76" as="targetPoint" />
          </mxGeometry>
        </mxCell>
        <mxCell id="g2Q_208xarCO59cymIMF-302" value="" style="endArrow=none;html=1;rounded=0;" edge="1" parent="1">
          <mxGeometry width="50" height="50" relative="1" as="geometry">
            <mxPoint x="920" y="440" as="sourcePoint" />
            <mxPoint x="1000" y="469.76" as="targetPoint" />
            <Array as="points">
              <mxPoint x="920" y="470" />
            </Array>
          </mxGeometry>
        </mxCell>
        <mxCell id="g2Q_208xarCO59cymIMF-303" value="" style="endArrow=none;html=1;rounded=0;exitX=1;exitY=0.5;exitDx=0;exitDy=0;" edge="1" parent="1" source="g2Q_208xarCO59cymIMF-61">
          <mxGeometry width="50" height="50" relative="1" as="geometry">
            <mxPoint x="840" y="480" as="sourcePoint" />
            <mxPoint x="1000" y="479.65999999999997" as="targetPoint" />
          </mxGeometry>
        </mxCell>
        <mxCell id="g2Q_208xarCO59cymIMF-304" value="" style="endArrow=none;html=1;rounded=0;" edge="1" parent="1">
          <mxGeometry width="50" height="50" relative="1" as="geometry">
            <mxPoint x="880" y="490" as="sourcePoint" />
            <mxPoint x="1000" y="489.76" as="targetPoint" />
          </mxGeometry>
        </mxCell>
        <mxCell id="g2Q_208xarCO59cymIMF-305" value="" style="group;rotation=0;" vertex="1" connectable="0" parent="1">
          <mxGeometry x="920" y="310" width="10" height="70" as="geometry" />
        </mxCell>
        <mxCell id="g2Q_208xarCO59cymIMF-306" value="" style="endArrow=none;html=1;rounded=0;" edge="1" parent="g2Q_208xarCO59cymIMF-305">
          <mxGeometry width="50" height="50" relative="1" as="geometry">
            <mxPoint y="46.66666666666666" as="sourcePoint" />
            <mxPoint y="70" as="targetPoint" />
          </mxGeometry>
        </mxCell>
        <mxCell id="g2Q_208xarCO59cymIMF-307" value="" style="curved=1;endArrow=none;html=1;rounded=0;endFill=0;" edge="1" parent="g2Q_208xarCO59cymIMF-305">
          <mxGeometry width="50" height="50" relative="1" as="geometry">
            <mxPoint y="46.66666666666666" as="sourcePoint" />
            <mxPoint y="23.33333333333333" as="targetPoint" />
            <Array as="points">
              <mxPoint x="10" y="46.66666666666666" />
              <mxPoint x="10" y="23.33333333333333" />
            </Array>
          </mxGeometry>
        </mxCell>
        <mxCell id="g2Q_208xarCO59cymIMF-308" value="" style="endArrow=none;html=1;rounded=0;" edge="1" parent="g2Q_208xarCO59cymIMF-305">
          <mxGeometry width="50" height="50" relative="1" as="geometry">
            <mxPoint as="sourcePoint" />
            <mxPoint y="23.33333333333333" as="targetPoint" />
          </mxGeometry>
        </mxCell>
        <mxCell id="g2Q_208xarCO59cymIMF-327" value="" style="endArrow=none;html=1;rounded=0;" edge="1" parent="g2Q_208xarCO59cymIMF-305">
          <mxGeometry width="50" height="50" relative="1" as="geometry">
            <mxPoint x="-40" y="40" as="sourcePoint" />
            <mxPoint x="50" y="40" as="targetPoint" />
          </mxGeometry>
        </mxCell>
        <mxCell id="g2Q_208xarCO59cymIMF-368" value="" style="ellipse;whiteSpace=wrap;html=1;aspect=fixed;" vertex="1" parent="g2Q_208xarCO59cymIMF-305">
          <mxGeometry x="-5" y="15" width="10" height="10" as="geometry" />
        </mxCell>
        <mxCell id="g2Q_208xarCO59cymIMF-315" value="" style="group;rotation=0;" vertex="1" connectable="0" parent="1">
          <mxGeometry x="920" y="370" width="10" height="70" as="geometry" />
        </mxCell>
        <mxCell id="g2Q_208xarCO59cymIMF-316" value="" style="endArrow=none;html=1;rounded=0;" edge="1" parent="g2Q_208xarCO59cymIMF-315">
          <mxGeometry width="50" height="50" relative="1" as="geometry">
            <mxPoint y="46.66666666666666" as="sourcePoint" />
            <mxPoint y="70" as="targetPoint" />
          </mxGeometry>
        </mxCell>
        <mxCell id="g2Q_208xarCO59cymIMF-317" value="" style="curved=1;endArrow=none;html=1;rounded=0;endFill=0;" edge="1" parent="g2Q_208xarCO59cymIMF-315">
          <mxGeometry width="50" height="50" relative="1" as="geometry">
            <mxPoint y="46.66666666666666" as="sourcePoint" />
            <mxPoint y="23.33333333333333" as="targetPoint" />
            <Array as="points">
              <mxPoint x="10" y="46.66666666666666" />
              <mxPoint x="10" y="23.33333333333333" />
            </Array>
          </mxGeometry>
        </mxCell>
        <mxCell id="g2Q_208xarCO59cymIMF-318" value="" style="endArrow=none;html=1;rounded=0;" edge="1" parent="g2Q_208xarCO59cymIMF-315">
          <mxGeometry width="50" height="50" relative="1" as="geometry">
            <mxPoint as="sourcePoint" />
            <mxPoint y="23.33333333333333" as="targetPoint" />
          </mxGeometry>
        </mxCell>
        <mxCell id="g2Q_208xarCO59cymIMF-369" value="" style="ellipse;whiteSpace=wrap;html=1;aspect=fixed;" vertex="1" parent="g2Q_208xarCO59cymIMF-315">
          <mxGeometry x="-5" y="15" width="10" height="10" as="geometry" />
        </mxCell>
        <mxCell id="g2Q_208xarCO59cymIMF-323" value="" style="endArrow=none;html=1;rounded=0;" edge="1" parent="1">
          <mxGeometry width="50" height="50" relative="1" as="geometry">
            <mxPoint x="920" y="310" as="sourcePoint" />
            <mxPoint x="920" y="160" as="targetPoint" />
          </mxGeometry>
        </mxCell>
        <mxCell id="g2Q_208xarCO59cymIMF-324" value="" style="endArrow=none;html=1;rounded=0;" edge="1" parent="1">
          <mxGeometry width="50" height="50" relative="1" as="geometry">
            <mxPoint x="320" y="160" as="sourcePoint" />
            <mxPoint x="920" y="160" as="targetPoint" />
          </mxGeometry>
        </mxCell>
        <mxCell id="g2Q_208xarCO59cymIMF-325" value="" style="endArrow=none;html=1;rounded=0;" edge="1" parent="1">
          <mxGeometry width="50" height="50" relative="1" as="geometry">
            <mxPoint x="320" y="200" as="sourcePoint" />
            <mxPoint x="320" y="160" as="targetPoint" />
          </mxGeometry>
        </mxCell>
        <mxCell id="g2Q_208xarCO59cymIMF-328" value="" style="group;rotation=0;" vertex="1" connectable="0" parent="1">
          <mxGeometry x="880" y="385" width="10" height="30" as="geometry" />
        </mxCell>
        <mxCell id="g2Q_208xarCO59cymIMF-329" value="" style="endArrow=none;html=1;rounded=0;" edge="1" parent="g2Q_208xarCO59cymIMF-328">
          <mxGeometry width="50" height="50" relative="1" as="geometry">
            <mxPoint y="20" as="sourcePoint" />
            <mxPoint y="30" as="targetPoint" />
          </mxGeometry>
        </mxCell>
        <mxCell id="g2Q_208xarCO59cymIMF-330" value="" style="curved=1;endArrow=none;html=1;rounded=0;endFill=0;" edge="1" parent="g2Q_208xarCO59cymIMF-328">
          <mxGeometry width="50" height="50" relative="1" as="geometry">
            <mxPoint y="20" as="sourcePoint" />
            <mxPoint y="10" as="targetPoint" />
            <Array as="points">
              <mxPoint x="10" y="20" />
              <mxPoint x="10" y="10" />
            </Array>
          </mxGeometry>
        </mxCell>
        <mxCell id="g2Q_208xarCO59cymIMF-331" value="" style="endArrow=none;html=1;rounded=0;" edge="1" parent="g2Q_208xarCO59cymIMF-328">
          <mxGeometry width="50" height="50" relative="1" as="geometry">
            <mxPoint as="sourcePoint" />
            <mxPoint y="10" as="targetPoint" />
          </mxGeometry>
        </mxCell>
        <mxCell id="g2Q_208xarCO59cymIMF-332" value="" style="group;rotation=0;" vertex="1" connectable="0" parent="1">
          <mxGeometry x="880" y="465" width="10" height="30" as="geometry" />
        </mxCell>
        <mxCell id="g2Q_208xarCO59cymIMF-333" value="" style="endArrow=none;html=1;rounded=0;" edge="1" parent="g2Q_208xarCO59cymIMF-332" source="g2Q_208xarCO59cymIMF-371">
          <mxGeometry width="50" height="50" relative="1" as="geometry">
            <mxPoint y="20" as="sourcePoint" />
            <mxPoint y="30" as="targetPoint" />
          </mxGeometry>
        </mxCell>
        <mxCell id="g2Q_208xarCO59cymIMF-334" value="" style="curved=1;endArrow=none;html=1;rounded=0;endFill=0;" edge="1" parent="g2Q_208xarCO59cymIMF-332">
          <mxGeometry width="50" height="50" relative="1" as="geometry">
            <mxPoint y="20" as="sourcePoint" />
            <mxPoint y="10" as="targetPoint" />
            <Array as="points">
              <mxPoint x="10" y="20" />
              <mxPoint x="10" y="10" />
            </Array>
          </mxGeometry>
        </mxCell>
        <mxCell id="g2Q_208xarCO59cymIMF-335" value="" style="endArrow=none;html=1;rounded=0;" edge="1" parent="g2Q_208xarCO59cymIMF-332">
          <mxGeometry width="50" height="50" relative="1" as="geometry">
            <mxPoint as="sourcePoint" />
            <mxPoint y="10" as="targetPoint" />
          </mxGeometry>
        </mxCell>
        <mxCell id="g2Q_208xarCO59cymIMF-371" value="" style="ellipse;whiteSpace=wrap;html=1;aspect=fixed;" vertex="1" parent="g2Q_208xarCO59cymIMF-332">
          <mxGeometry x="-5" y="20" width="10" height="10" as="geometry" />
        </mxCell>
        <mxCell id="g2Q_208xarCO59cymIMF-336" value="" style="endArrow=none;html=1;rounded=0;exitX=1;exitY=0.5;exitDx=0;exitDy=0;entryX=0.5;entryY=1;entryDx=0;entryDy=0;" edge="1" parent="1" source="g2Q_208xarCO59cymIMF-62" target="g2Q_208xarCO59cymIMF-371">
          <mxGeometry width="50" height="50" relative="1" as="geometry">
            <mxPoint x="840" y="580" as="sourcePoint" />
            <mxPoint x="880" y="500" as="targetPoint" />
            <Array as="points">
              <mxPoint x="880" y="520" />
            </Array>
          </mxGeometry>
        </mxCell>
        <mxCell id="g2Q_208xarCO59cymIMF-337" value="" style="endArrow=none;html=1;rounded=0;" edge="1" parent="1">
          <mxGeometry width="50" height="50" relative="1" as="geometry">
            <mxPoint x="880" y="470" as="sourcePoint" />
            <mxPoint x="880" y="410" as="targetPoint" />
          </mxGeometry>
        </mxCell>
        <mxCell id="g2Q_208xarCO59cymIMF-338" value="" style="endArrow=none;html=1;rounded=0;" edge="1" parent="1">
          <mxGeometry width="50" height="50" relative="1" as="geometry">
            <mxPoint x="880" y="390" as="sourcePoint" />
            <mxPoint x="880" y="350" as="targetPoint" />
          </mxGeometry>
        </mxCell>
        <mxCell id="g2Q_208xarCO59cymIMF-339" value="" style="endArrow=none;html=1;rounded=0;" edge="1" parent="1">
          <mxGeometry width="50" height="50" relative="1" as="geometry">
            <mxPoint x="810" y="360" as="sourcePoint" />
            <mxPoint x="840" y="340" as="targetPoint" />
            <Array as="points">
              <mxPoint x="840" y="360" />
            </Array>
          </mxGeometry>
        </mxCell>
        <mxCell id="g2Q_208xarCO59cymIMF-340" value="" style="ellipse;whiteSpace=wrap;html=1;aspect=fixed;" vertex="1" parent="1">
          <mxGeometry x="NaN" y="NaN" width="20" height="NaN" as="geometry" />
        </mxCell>
        <mxCell id="g2Q_208xarCO59cymIMF-342" value="" style="endArrow=none;html=1;rounded=0;entryX=0;entryY=0.5;entryDx=0;entryDy=0;" edge="1" parent="1" target="g2Q_208xarCO59cymIMF-341">
          <mxGeometry width="50" height="50" relative="1" as="geometry">
            <mxPoint x="200" y="239.82999999999998" as="sourcePoint" />
            <mxPoint x="470" y="240" as="targetPoint" />
          </mxGeometry>
        </mxCell>
        <mxCell id="g2Q_208xarCO59cymIMF-341" value="" style="ellipse;whiteSpace=wrap;html=1;aspect=fixed;" vertex="1" parent="1">
          <mxGeometry x="315" y="235" width="10" height="10" as="geometry" />
        </mxCell>
        <mxCell id="g2Q_208xarCO59cymIMF-344" value="" style="endArrow=none;html=1;rounded=0;" edge="1" parent="1" target="g2Q_208xarCO59cymIMF-343">
          <mxGeometry width="50" height="50" relative="1" as="geometry">
            <mxPoint x="320" y="350" as="sourcePoint" />
            <mxPoint x="320" y="330" as="targetPoint" />
          </mxGeometry>
        </mxCell>
        <mxCell id="g2Q_208xarCO59cymIMF-343" value="" style="ellipse;whiteSpace=wrap;html=1;aspect=fixed;" vertex="1" parent="1">
          <mxGeometry x="315" y="345" width="10" height="10" as="geometry" />
        </mxCell>
        <mxCell id="g2Q_208xarCO59cymIMF-348" value="" style="endArrow=none;html=1;rounded=0;" edge="1" parent="1" target="g2Q_208xarCO59cymIMF-347">
          <mxGeometry width="50" height="50" relative="1" as="geometry">
            <mxPoint x="300" y="450" as="sourcePoint" />
            <mxPoint x="360" y="450" as="targetPoint" />
          </mxGeometry>
        </mxCell>
        <mxCell id="g2Q_208xarCO59cymIMF-347" value="" style="ellipse;whiteSpace=wrap;html=1;aspect=fixed;" vertex="1" parent="1">
          <mxGeometry x="355" y="445" width="10" height="10" as="geometry" />
        </mxCell>
        <mxCell id="g2Q_208xarCO59cymIMF-123" value="" style="group;rotation=-90;" vertex="1" connectable="0" parent="1">
          <mxGeometry x="90" y="440" width="10" height="30" as="geometry" />
        </mxCell>
        <mxCell id="g2Q_208xarCO59cymIMF-124" value="" style="endArrow=none;html=1;rounded=0;" edge="1" parent="g2Q_208xarCO59cymIMF-123">
          <mxGeometry width="50" height="50" relative="1" as="geometry">
            <mxPoint x="10" y="20" as="sourcePoint" />
            <mxPoint x="20" y="20" as="targetPoint" />
          </mxGeometry>
        </mxCell>
        <mxCell id="g2Q_208xarCO59cymIMF-125" value="" style="curved=1;endArrow=none;html=1;rounded=0;endFill=0;" edge="1" parent="g2Q_208xarCO59cymIMF-123">
          <mxGeometry width="50" height="50" relative="1" as="geometry">
            <mxPoint x="10" y="20" as="sourcePoint" />
            <mxPoint y="20" as="targetPoint" />
            <Array as="points">
              <mxPoint x="10" y="10" />
              <mxPoint y="10" />
            </Array>
          </mxGeometry>
        </mxCell>
        <mxCell id="g2Q_208xarCO59cymIMF-126" value="" style="endArrow=none;html=1;rounded=0;" edge="1" parent="g2Q_208xarCO59cymIMF-123">
          <mxGeometry width="50" height="50" relative="1" as="geometry">
            <mxPoint x="-10" y="20" as="sourcePoint" />
            <mxPoint y="20" as="targetPoint" />
          </mxGeometry>
        </mxCell>
        <mxCell id="g2Q_208xarCO59cymIMF-3" value="BME680" style="whiteSpace=wrap;html=1;aspect=fixed;" vertex="1" parent="1">
          <mxGeometry y="410" width="80" height="80" as="geometry" />
        </mxCell>
        <mxCell id="g2Q_208xarCO59cymIMF-99" value="" style="endArrow=none;html=1;rounded=0;exitX=1;exitY=0.25;exitDx=0;exitDy=0;" edge="1" parent="1">
          <mxGeometry width="50" height="50" relative="1" as="geometry">
            <mxPoint x="80" y="480.0044444444441" as="sourcePoint" />
            <mxPoint x="95" y="480" as="targetPoint" />
          </mxGeometry>
        </mxCell>
        <mxCell id="g2Q_208xarCO59cymIMF-128" value="" style="group;rotation=-90;" vertex="1" connectable="0" parent="1">
          <mxGeometry x="90" y="420" width="10" height="30" as="geometry" />
        </mxCell>
        <mxCell id="g2Q_208xarCO59cymIMF-129" value="" style="endArrow=none;html=1;rounded=0;" edge="1" parent="g2Q_208xarCO59cymIMF-128">
          <mxGeometry width="50" height="50" relative="1" as="geometry">
            <mxPoint x="10" y="20" as="sourcePoint" />
            <mxPoint x="20" y="20" as="targetPoint" />
          </mxGeometry>
        </mxCell>
        <mxCell id="g2Q_208xarCO59cymIMF-130" value="" style="curved=1;endArrow=none;html=1;rounded=0;endFill=0;" edge="1" parent="g2Q_208xarCO59cymIMF-128">
          <mxGeometry width="50" height="50" relative="1" as="geometry">
            <mxPoint x="10" y="20" as="sourcePoint" />
            <mxPoint y="20" as="targetPoint" />
            <Array as="points">
              <mxPoint x="10" y="10" />
              <mxPoint y="10" />
            </Array>
          </mxGeometry>
        </mxCell>
        <mxCell id="g2Q_208xarCO59cymIMF-131" value="" style="endArrow=none;html=1;rounded=0;" edge="1" parent="g2Q_208xarCO59cymIMF-128">
          <mxGeometry width="50" height="50" relative="1" as="geometry">
            <mxPoint x="-10" y="20" as="sourcePoint" />
            <mxPoint y="20" as="targetPoint" />
          </mxGeometry>
        </mxCell>
        <mxCell id="g2Q_208xarCO59cymIMF-132" value="" style="group;rotation=-90;" vertex="1" connectable="0" parent="1">
          <mxGeometry x="90" y="400" width="10" height="30" as="geometry" />
        </mxCell>
        <mxCell id="g2Q_208xarCO59cymIMF-133" value="" style="endArrow=none;html=1;rounded=0;" edge="1" parent="g2Q_208xarCO59cymIMF-132">
          <mxGeometry width="50" height="50" relative="1" as="geometry">
            <mxPoint x="10" y="20" as="sourcePoint" />
            <mxPoint x="20" y="20" as="targetPoint" />
          </mxGeometry>
        </mxCell>
        <mxCell id="g2Q_208xarCO59cymIMF-134" value="" style="curved=1;endArrow=none;html=1;rounded=0;endFill=0;" edge="1" parent="g2Q_208xarCO59cymIMF-132">
          <mxGeometry width="50" height="50" relative="1" as="geometry">
            <mxPoint x="10" y="20" as="sourcePoint" />
            <mxPoint y="20" as="targetPoint" />
            <Array as="points">
              <mxPoint x="10" y="10" />
              <mxPoint y="10" />
            </Array>
          </mxGeometry>
        </mxCell>
        <mxCell id="g2Q_208xarCO59cymIMF-135" value="" style="endArrow=none;html=1;rounded=0;" edge="1" parent="g2Q_208xarCO59cymIMF-132">
          <mxGeometry width="50" height="50" relative="1" as="geometry">
            <mxPoint x="-10" y="20" as="sourcePoint" />
            <mxPoint y="20" as="targetPoint" />
          </mxGeometry>
        </mxCell>
        <mxCell id="g2Q_208xarCO59cymIMF-2" value="&lt;div&gt;MAX30102&lt;/div&gt;&lt;div&gt;&lt;br&gt;&lt;/div&gt;" style="whiteSpace=wrap;html=1;aspect=fixed;" vertex="1" parent="1">
          <mxGeometry y="290" width="80" height="80" as="geometry" />
        </mxCell>
        <mxCell id="g2Q_208xarCO59cymIMF-103" value="" style="endArrow=none;html=1;rounded=0;exitX=1;exitY=0.25;exitDx=0;exitDy=0;" edge="1" parent="1">
          <mxGeometry width="50" height="50" relative="1" as="geometry">
            <mxPoint x="80" y="360" as="sourcePoint" />
            <mxPoint x="95" y="360" as="targetPoint" />
          </mxGeometry>
        </mxCell>
        <mxCell id="g2Q_208xarCO59cymIMF-136" value="" style="endArrow=none;html=1;rounded=0;" edge="1" parent="1" source="g2Q_208xarCO59cymIMF-354">
          <mxGeometry width="50" height="50" relative="1" as="geometry">
            <mxPoint x="95" y="480" as="sourcePoint" />
            <mxPoint x="95" y="240" as="targetPoint" />
          </mxGeometry>
        </mxCell>
        <mxCell id="g2Q_208xarCO59cymIMF-1" value="Display &lt;br&gt;(TBD but SPI)" style="whiteSpace=wrap;html=1;aspect=fixed;" vertex="1" parent="1">
          <mxGeometry y="170" width="80" height="80" as="geometry" />
        </mxCell>
        <mxCell id="g2Q_208xarCO59cymIMF-87" value="" style="endArrow=none;html=1;rounded=0;exitX=1;exitY=0.25;exitDx=0;exitDy=0;" edge="1" parent="1">
          <mxGeometry width="50" height="50" relative="1" as="geometry">
            <mxPoint x="80" y="240" as="sourcePoint" />
            <mxPoint x="110" y="240" as="targetPoint" />
          </mxGeometry>
        </mxCell>
        <mxCell id="g2Q_208xarCO59cymIMF-137" value="" style="group;rotation=-90;" vertex="1" connectable="0" parent="1">
          <mxGeometry x="90" y="320" width="10" height="30" as="geometry" />
        </mxCell>
        <mxCell id="g2Q_208xarCO59cymIMF-138" value="" style="endArrow=none;html=1;rounded=0;" edge="1" parent="g2Q_208xarCO59cymIMF-137">
          <mxGeometry width="50" height="50" relative="1" as="geometry">
            <mxPoint x="10" y="20" as="sourcePoint" />
            <mxPoint x="20" y="20" as="targetPoint" />
          </mxGeometry>
        </mxCell>
        <mxCell id="g2Q_208xarCO59cymIMF-139" value="" style="curved=1;endArrow=none;html=1;rounded=0;endFill=0;" edge="1" parent="g2Q_208xarCO59cymIMF-137">
          <mxGeometry width="50" height="50" relative="1" as="geometry">
            <mxPoint x="10" y="20" as="sourcePoint" />
            <mxPoint y="20" as="targetPoint" />
            <Array as="points">
              <mxPoint x="10" y="10" />
              <mxPoint y="10" />
            </Array>
          </mxGeometry>
        </mxCell>
        <mxCell id="g2Q_208xarCO59cymIMF-140" value="" style="endArrow=none;html=1;rounded=0;" edge="1" parent="g2Q_208xarCO59cymIMF-137">
          <mxGeometry width="50" height="50" relative="1" as="geometry">
            <mxPoint x="-10" y="20" as="sourcePoint" />
            <mxPoint y="20" as="targetPoint" />
          </mxGeometry>
        </mxCell>
        <mxCell id="g2Q_208xarCO59cymIMF-141" value="" style="group;rotation=-90;" vertex="1" connectable="0" parent="1">
          <mxGeometry x="90" y="300" width="10" height="30" as="geometry" />
        </mxCell>
        <mxCell id="g2Q_208xarCO59cymIMF-142" value="" style="endArrow=none;html=1;rounded=0;" edge="1" parent="g2Q_208xarCO59cymIMF-141">
          <mxGeometry width="50" height="50" relative="1" as="geometry">
            <mxPoint x="10" y="20" as="sourcePoint" />
            <mxPoint x="20" y="20" as="targetPoint" />
          </mxGeometry>
        </mxCell>
        <mxCell id="g2Q_208xarCO59cymIMF-143" value="" style="curved=1;endArrow=none;html=1;rounded=0;endFill=0;" edge="1" parent="g2Q_208xarCO59cymIMF-141">
          <mxGeometry width="50" height="50" relative="1" as="geometry">
            <mxPoint x="10" y="20" as="sourcePoint" />
            <mxPoint y="20" as="targetPoint" />
            <Array as="points">
              <mxPoint x="10" y="10" />
              <mxPoint y="10" />
            </Array>
          </mxGeometry>
        </mxCell>
        <mxCell id="g2Q_208xarCO59cymIMF-144" value="" style="endArrow=none;html=1;rounded=0;" edge="1" parent="g2Q_208xarCO59cymIMF-141">
          <mxGeometry width="50" height="50" relative="1" as="geometry">
            <mxPoint x="-10" y="20" as="sourcePoint" />
            <mxPoint y="20" as="targetPoint" />
          </mxGeometry>
        </mxCell>
        <mxCell id="g2Q_208xarCO59cymIMF-145" value="" style="group;rotation=-90;" vertex="1" connectable="0" parent="1">
          <mxGeometry x="90" y="280" width="10" height="30" as="geometry" />
        </mxCell>
        <mxCell id="g2Q_208xarCO59cymIMF-146" value="" style="endArrow=none;html=1;rounded=0;" edge="1" parent="g2Q_208xarCO59cymIMF-145">
          <mxGeometry width="50" height="50" relative="1" as="geometry">
            <mxPoint x="10" y="20" as="sourcePoint" />
            <mxPoint x="20" y="20" as="targetPoint" />
          </mxGeometry>
        </mxCell>
        <mxCell id="g2Q_208xarCO59cymIMF-147" value="" style="curved=1;endArrow=none;html=1;rounded=0;endFill=0;" edge="1" parent="g2Q_208xarCO59cymIMF-145">
          <mxGeometry width="50" height="50" relative="1" as="geometry">
            <mxPoint x="10" y="20" as="sourcePoint" />
            <mxPoint y="20" as="targetPoint" />
            <Array as="points">
              <mxPoint x="10" y="10" />
              <mxPoint y="10" />
            </Array>
          </mxGeometry>
        </mxCell>
        <mxCell id="g2Q_208xarCO59cymIMF-148" value="" style="endArrow=none;html=1;rounded=0;" edge="1" parent="g2Q_208xarCO59cymIMF-145">
          <mxGeometry width="50" height="50" relative="1" as="geometry">
            <mxPoint x="-10" y="20" as="sourcePoint" />
            <mxPoint y="20" as="targetPoint" />
          </mxGeometry>
        </mxCell>
        <mxCell id="g2Q_208xarCO59cymIMF-149" value="" style="group;rotation=-90;" vertex="1" connectable="0" parent="1">
          <mxGeometry x="120" y="220" width="10" height="30" as="geometry" />
        </mxCell>
        <mxCell id="g2Q_208xarCO59cymIMF-150" value="" style="endArrow=none;html=1;rounded=0;" edge="1" parent="g2Q_208xarCO59cymIMF-149">
          <mxGeometry width="50" height="50" relative="1" as="geometry">
            <mxPoint x="10" y="20" as="sourcePoint" />
            <mxPoint x="20" y="20" as="targetPoint" />
          </mxGeometry>
        </mxCell>
        <mxCell id="g2Q_208xarCO59cymIMF-151" value="" style="curved=1;endArrow=none;html=1;rounded=0;endFill=0;" edge="1" parent="g2Q_208xarCO59cymIMF-149">
          <mxGeometry width="50" height="50" relative="1" as="geometry">
            <mxPoint x="10" y="20" as="sourcePoint" />
            <mxPoint y="20" as="targetPoint" />
            <Array as="points">
              <mxPoint x="10" y="10" />
              <mxPoint y="10" />
            </Array>
          </mxGeometry>
        </mxCell>
        <mxCell id="g2Q_208xarCO59cymIMF-152" value="" style="endArrow=none;html=1;rounded=0;" edge="1" parent="g2Q_208xarCO59cymIMF-149">
          <mxGeometry width="50" height="50" relative="1" as="geometry">
            <mxPoint x="-10" y="20" as="sourcePoint" />
            <mxPoint y="20" as="targetPoint" />
          </mxGeometry>
        </mxCell>
        <mxCell id="g2Q_208xarCO59cymIMF-153" value="" style="group;rotation=-90;" vertex="1" connectable="0" parent="1">
          <mxGeometry x="120" y="200" width="10" height="30" as="geometry" />
        </mxCell>
        <mxCell id="g2Q_208xarCO59cymIMF-154" value="" style="endArrow=none;html=1;rounded=0;" edge="1" parent="g2Q_208xarCO59cymIMF-153">
          <mxGeometry width="50" height="50" relative="1" as="geometry">
            <mxPoint x="10" y="20" as="sourcePoint" />
            <mxPoint x="20" y="20" as="targetPoint" />
          </mxGeometry>
        </mxCell>
        <mxCell id="g2Q_208xarCO59cymIMF-155" value="" style="curved=1;endArrow=none;html=1;rounded=0;endFill=0;" edge="1" parent="g2Q_208xarCO59cymIMF-153">
          <mxGeometry width="50" height="50" relative="1" as="geometry">
            <mxPoint x="10" y="20" as="sourcePoint" />
            <mxPoint y="20" as="targetPoint" />
            <Array as="points">
              <mxPoint x="10" y="10" />
              <mxPoint y="10" />
            </Array>
          </mxGeometry>
        </mxCell>
        <mxCell id="g2Q_208xarCO59cymIMF-156" value="" style="endArrow=none;html=1;rounded=0;" edge="1" parent="g2Q_208xarCO59cymIMF-153">
          <mxGeometry width="50" height="50" relative="1" as="geometry">
            <mxPoint x="-10" y="20" as="sourcePoint" />
            <mxPoint y="20" as="targetPoint" />
          </mxGeometry>
        </mxCell>
        <mxCell id="g2Q_208xarCO59cymIMF-157" value="" style="group;rotation=-90;" vertex="1" connectable="0" parent="1">
          <mxGeometry x="120" y="180" width="10" height="30" as="geometry" />
        </mxCell>
        <mxCell id="g2Q_208xarCO59cymIMF-158" value="" style="endArrow=none;html=1;rounded=0;" edge="1" parent="g2Q_208xarCO59cymIMF-157">
          <mxGeometry width="50" height="50" relative="1" as="geometry">
            <mxPoint x="10" y="20" as="sourcePoint" />
            <mxPoint x="20" y="20" as="targetPoint" />
          </mxGeometry>
        </mxCell>
        <mxCell id="g2Q_208xarCO59cymIMF-159" value="" style="curved=1;endArrow=none;html=1;rounded=0;endFill=0;" edge="1" parent="g2Q_208xarCO59cymIMF-157">
          <mxGeometry width="50" height="50" relative="1" as="geometry">
            <mxPoint x="10" y="20" as="sourcePoint" />
            <mxPoint y="20" as="targetPoint" />
            <Array as="points">
              <mxPoint x="10" y="10" />
              <mxPoint y="10" />
            </Array>
          </mxGeometry>
        </mxCell>
        <mxCell id="g2Q_208xarCO59cymIMF-160" value="" style="endArrow=none;html=1;rounded=0;" edge="1" parent="g2Q_208xarCO59cymIMF-157">
          <mxGeometry width="50" height="50" relative="1" as="geometry">
            <mxPoint x="-10" y="20" as="sourcePoint" />
            <mxPoint y="20" as="targetPoint" />
          </mxGeometry>
        </mxCell>
        <mxCell id="g2Q_208xarCO59cymIMF-161" value="" style="endArrow=none;html=1;rounded=0;exitX=1;exitY=0.25;exitDx=0;exitDy=0;" edge="1" parent="1">
          <mxGeometry width="50" height="50" relative="1" as="geometry">
            <mxPoint x="80" y="220" as="sourcePoint" />
            <mxPoint x="110" y="220" as="targetPoint" />
          </mxGeometry>
        </mxCell>
        <mxCell id="g2Q_208xarCO59cymIMF-162" value="" style="endArrow=none;html=1;rounded=0;exitX=1;exitY=0.25;exitDx=0;exitDy=0;" edge="1" parent="1">
          <mxGeometry width="50" height="50" relative="1" as="geometry">
            <mxPoint x="80" y="200" as="sourcePoint" />
            <mxPoint x="110" y="200" as="targetPoint" />
          </mxGeometry>
        </mxCell>
        <mxCell id="g2Q_208xarCO59cymIMF-163" value="" style="endArrow=none;html=1;rounded=0;exitX=1;exitY=0.25;exitDx=0;exitDy=0;" edge="1" parent="1">
          <mxGeometry width="50" height="50" relative="1" as="geometry">
            <mxPoint x="80" y="180" as="sourcePoint" />
            <mxPoint x="125" y="180" as="targetPoint" />
          </mxGeometry>
        </mxCell>
        <mxCell id="g2Q_208xarCO59cymIMF-164" value="" style="group;rotation=-90;" vertex="1" connectable="0" parent="1">
          <mxGeometry x="150" y="200" width="10" height="30" as="geometry" />
        </mxCell>
        <mxCell id="g2Q_208xarCO59cymIMF-165" value="" style="endArrow=none;html=1;rounded=0;" edge="1" parent="g2Q_208xarCO59cymIMF-164">
          <mxGeometry width="50" height="50" relative="1" as="geometry">
            <mxPoint x="10" y="20" as="sourcePoint" />
            <mxPoint x="20" y="20" as="targetPoint" />
          </mxGeometry>
        </mxCell>
        <mxCell id="g2Q_208xarCO59cymIMF-166" value="" style="curved=1;endArrow=none;html=1;rounded=0;endFill=0;" edge="1" parent="g2Q_208xarCO59cymIMF-164">
          <mxGeometry width="50" height="50" relative="1" as="geometry">
            <mxPoint x="10" y="20" as="sourcePoint" />
            <mxPoint y="20" as="targetPoint" />
            <Array as="points">
              <mxPoint x="10" y="10" />
              <mxPoint y="10" />
            </Array>
          </mxGeometry>
        </mxCell>
        <mxCell id="g2Q_208xarCO59cymIMF-167" value="" style="endArrow=none;html=1;rounded=0;" edge="1" parent="g2Q_208xarCO59cymIMF-164">
          <mxGeometry width="50" height="50" relative="1" as="geometry">
            <mxPoint x="-10" y="20" as="sourcePoint" />
            <mxPoint y="20" as="targetPoint" />
          </mxGeometry>
        </mxCell>
        <mxCell id="g2Q_208xarCO59cymIMF-168" value="" style="group;rotation=0;" vertex="1" connectable="0" parent="1">
          <mxGeometry x="170" y="225" width="10" height="30" as="geometry" />
        </mxCell>
        <mxCell id="g2Q_208xarCO59cymIMF-169" value="" style="endArrow=none;html=1;rounded=0;" edge="1" parent="g2Q_208xarCO59cymIMF-168">
          <mxGeometry width="50" height="50" relative="1" as="geometry">
            <mxPoint y="20" as="sourcePoint" />
            <mxPoint y="30" as="targetPoint" />
          </mxGeometry>
        </mxCell>
        <mxCell id="g2Q_208xarCO59cymIMF-170" value="" style="curved=1;endArrow=none;html=1;rounded=0;endFill=0;" edge="1" parent="g2Q_208xarCO59cymIMF-168">
          <mxGeometry width="50" height="50" relative="1" as="geometry">
            <mxPoint y="20" as="sourcePoint" />
            <mxPoint y="10" as="targetPoint" />
            <Array as="points">
              <mxPoint x="10" y="20" />
              <mxPoint x="10" y="10" />
            </Array>
          </mxGeometry>
        </mxCell>
        <mxCell id="g2Q_208xarCO59cymIMF-171" value="" style="endArrow=none;html=1;rounded=0;" edge="1" parent="g2Q_208xarCO59cymIMF-168">
          <mxGeometry width="50" height="50" relative="1" as="geometry">
            <mxPoint as="sourcePoint" />
            <mxPoint y="10" as="targetPoint" />
          </mxGeometry>
        </mxCell>
        <mxCell id="g2Q_208xarCO59cymIMF-172" value="" style="group;rotation=-90;" vertex="1" connectable="0" parent="1">
          <mxGeometry x="120" y="300" width="10" height="30" as="geometry" />
        </mxCell>
        <mxCell id="g2Q_208xarCO59cymIMF-173" value="" style="endArrow=none;html=1;rounded=0;" edge="1" parent="g2Q_208xarCO59cymIMF-172">
          <mxGeometry width="50" height="50" relative="1" as="geometry">
            <mxPoint x="10" y="20" as="sourcePoint" />
            <mxPoint x="20" y="20" as="targetPoint" />
          </mxGeometry>
        </mxCell>
        <mxCell id="g2Q_208xarCO59cymIMF-174" value="" style="curved=1;endArrow=none;html=1;rounded=0;endFill=0;" edge="1" parent="g2Q_208xarCO59cymIMF-172">
          <mxGeometry width="50" height="50" relative="1" as="geometry">
            <mxPoint x="10" y="20" as="sourcePoint" />
            <mxPoint y="20" as="targetPoint" />
            <Array as="points">
              <mxPoint x="10" y="10" />
              <mxPoint y="10" />
            </Array>
          </mxGeometry>
        </mxCell>
        <mxCell id="g2Q_208xarCO59cymIMF-175" value="" style="endArrow=none;html=1;rounded=0;" edge="1" parent="g2Q_208xarCO59cymIMF-172">
          <mxGeometry width="50" height="50" relative="1" as="geometry">
            <mxPoint x="-10" y="20" as="sourcePoint" />
            <mxPoint y="20" as="targetPoint" />
          </mxGeometry>
        </mxCell>
        <mxCell id="g2Q_208xarCO59cymIMF-176" value="" style="group;rotation=-90;" vertex="1" connectable="0" parent="1">
          <mxGeometry x="120" y="320" width="10" height="30" as="geometry" />
        </mxCell>
        <mxCell id="g2Q_208xarCO59cymIMF-177" value="" style="endArrow=none;html=1;rounded=0;" edge="1" parent="g2Q_208xarCO59cymIMF-176">
          <mxGeometry width="50" height="50" relative="1" as="geometry">
            <mxPoint x="10" y="20" as="sourcePoint" />
            <mxPoint x="20" y="20" as="targetPoint" />
          </mxGeometry>
        </mxCell>
        <mxCell id="g2Q_208xarCO59cymIMF-178" value="" style="curved=1;endArrow=none;html=1;rounded=0;endFill=0;" edge="1" parent="g2Q_208xarCO59cymIMF-176">
          <mxGeometry width="50" height="50" relative="1" as="geometry">
            <mxPoint x="10" y="20" as="sourcePoint" />
            <mxPoint y="20" as="targetPoint" />
            <Array as="points">
              <mxPoint x="10" y="10" />
              <mxPoint y="10" />
            </Array>
          </mxGeometry>
        </mxCell>
        <mxCell id="g2Q_208xarCO59cymIMF-179" value="" style="endArrow=none;html=1;rounded=0;" edge="1" parent="g2Q_208xarCO59cymIMF-176">
          <mxGeometry width="50" height="50" relative="1" as="geometry">
            <mxPoint x="-10" y="20" as="sourcePoint" />
            <mxPoint y="20" as="targetPoint" />
          </mxGeometry>
        </mxCell>
        <mxCell id="g2Q_208xarCO59cymIMF-180" value="" style="group;rotation=-90;" vertex="1" connectable="0" parent="1">
          <mxGeometry x="150" y="320" width="10" height="30" as="geometry" />
        </mxCell>
        <mxCell id="g2Q_208xarCO59cymIMF-181" value="" style="endArrow=none;html=1;rounded=0;" edge="1" parent="g2Q_208xarCO59cymIMF-180">
          <mxGeometry width="50" height="50" relative="1" as="geometry">
            <mxPoint x="10" y="20" as="sourcePoint" />
            <mxPoint x="20" y="20" as="targetPoint" />
          </mxGeometry>
        </mxCell>
        <mxCell id="g2Q_208xarCO59cymIMF-182" value="" style="curved=1;endArrow=none;html=1;rounded=0;endFill=0;" edge="1" parent="g2Q_208xarCO59cymIMF-180">
          <mxGeometry width="50" height="50" relative="1" as="geometry">
            <mxPoint x="10" y="20" as="sourcePoint" />
            <mxPoint y="20" as="targetPoint" />
            <Array as="points">
              <mxPoint x="10" y="10" />
              <mxPoint y="10" />
            </Array>
          </mxGeometry>
        </mxCell>
        <mxCell id="g2Q_208xarCO59cymIMF-183" value="" style="endArrow=none;html=1;rounded=0;" edge="1" parent="g2Q_208xarCO59cymIMF-180">
          <mxGeometry width="50" height="50" relative="1" as="geometry">
            <mxPoint x="-10" y="20" as="sourcePoint" />
            <mxPoint y="20" as="targetPoint" />
          </mxGeometry>
        </mxCell>
        <mxCell id="g2Q_208xarCO59cymIMF-184" value="" style="endArrow=none;html=1;rounded=0;" edge="1" parent="1">
          <mxGeometry width="50" height="50" relative="1" as="geometry">
            <mxPoint x="170" y="230" as="sourcePoint" />
            <mxPoint x="170" y="220" as="targetPoint" />
          </mxGeometry>
        </mxCell>
        <mxCell id="g2Q_208xarCO59cymIMF-185" value="" style="endArrow=none;html=1;rounded=0;exitX=1;exitY=0.25;exitDx=0;exitDy=0;" edge="1" parent="1">
          <mxGeometry width="50" height="50" relative="1" as="geometry">
            <mxPoint x="140" y="200" as="sourcePoint" />
            <mxPoint x="155" y="200" as="targetPoint" />
          </mxGeometry>
        </mxCell>
        <mxCell id="g2Q_208xarCO59cymIMF-186" value="" style="endArrow=none;html=1;rounded=0;" edge="1" parent="1" source="g2Q_208xarCO59cymIMF-345">
          <mxGeometry width="50" height="50" relative="1" as="geometry">
            <mxPoint x="155" y="440" as="sourcePoint" />
            <mxPoint x="155" y="200" as="targetPoint" />
          </mxGeometry>
        </mxCell>
        <mxCell id="g2Q_208xarCO59cymIMF-187" value="" style="endArrow=none;html=1;rounded=0;" edge="1" parent="1">
          <mxGeometry width="50" height="50" relative="1" as="geometry">
            <mxPoint x="110" y="440" as="sourcePoint" />
            <mxPoint x="155" y="440" as="targetPoint" />
          </mxGeometry>
        </mxCell>
        <mxCell id="g2Q_208xarCO59cymIMF-188" value="" style="endArrow=none;html=1;rounded=0;" edge="1" parent="1" source="g2Q_208xarCO59cymIMF-352">
          <mxGeometry width="50" height="50" relative="1" as="geometry">
            <mxPoint x="125" y="420" as="sourcePoint" />
            <mxPoint x="125" y="180" as="targetPoint" />
          </mxGeometry>
        </mxCell>
        <mxCell id="g2Q_208xarCO59cymIMF-189" value="" style="endArrow=none;html=1;rounded=0;" edge="1" parent="1">
          <mxGeometry width="50" height="50" relative="1" as="geometry">
            <mxPoint x="110" y="420" as="sourcePoint" />
            <mxPoint x="125" y="420" as="targetPoint" />
          </mxGeometry>
        </mxCell>
        <mxCell id="g2Q_208xarCO59cymIMF-190" value="" style="group;rotation=0;" vertex="1" connectable="0" parent="1">
          <mxGeometry x="170" y="290" width="10" height="30" as="geometry" />
        </mxCell>
        <mxCell id="g2Q_208xarCO59cymIMF-191" value="" style="endArrow=none;html=1;rounded=0;" edge="1" parent="g2Q_208xarCO59cymIMF-190">
          <mxGeometry width="50" height="50" relative="1" as="geometry">
            <mxPoint y="20" as="sourcePoint" />
            <mxPoint y="30" as="targetPoint" />
          </mxGeometry>
        </mxCell>
        <mxCell id="g2Q_208xarCO59cymIMF-192" value="" style="curved=1;endArrow=none;html=1;rounded=0;endFill=0;" edge="1" parent="g2Q_208xarCO59cymIMF-190">
          <mxGeometry width="50" height="50" relative="1" as="geometry">
            <mxPoint y="20" as="sourcePoint" />
            <mxPoint y="10" as="targetPoint" />
            <Array as="points">
              <mxPoint x="10" y="20" />
              <mxPoint x="10" y="10" />
            </Array>
          </mxGeometry>
        </mxCell>
        <mxCell id="g2Q_208xarCO59cymIMF-193" value="" style="endArrow=none;html=1;rounded=0;" edge="1" parent="g2Q_208xarCO59cymIMF-190">
          <mxGeometry width="50" height="50" relative="1" as="geometry">
            <mxPoint as="sourcePoint" />
            <mxPoint y="10" as="targetPoint" />
          </mxGeometry>
        </mxCell>
        <mxCell id="g2Q_208xarCO59cymIMF-198" value="" style="endArrow=none;html=1;rounded=0;" edge="1" parent="1" source="g2Q_208xarCO59cymIMF-366">
          <mxGeometry width="50" height="50" relative="1" as="geometry">
            <mxPoint x="170" y="460" as="sourcePoint" />
            <mxPoint x="170" y="320" as="targetPoint" />
          </mxGeometry>
        </mxCell>
        <mxCell id="g2Q_208xarCO59cymIMF-199" value="" style="endArrow=none;html=1;rounded=0;" edge="1" parent="1" source="g2Q_208xarCO59cymIMF-360">
          <mxGeometry width="50" height="50" relative="1" as="geometry">
            <mxPoint x="110" y="460" as="sourcePoint" />
            <mxPoint x="170" y="460" as="targetPoint" />
          </mxGeometry>
        </mxCell>
        <mxCell id="g2Q_208xarCO59cymIMF-200" value="" style="endArrow=none;html=1;rounded=0;" edge="1" parent="1">
          <mxGeometry width="50" height="50" relative="1" as="geometry">
            <mxPoint x="170" y="290" as="sourcePoint" />
            <mxPoint x="170" y="280" as="targetPoint" />
          </mxGeometry>
        </mxCell>
        <mxCell id="g2Q_208xarCO59cymIMF-201" value="" style="endArrow=none;html=1;rounded=0;" edge="1" parent="1">
          <mxGeometry width="50" height="50" relative="1" as="geometry">
            <mxPoint x="140" y="320" as="sourcePoint" />
            <mxPoint x="155" y="320" as="targetPoint" />
          </mxGeometry>
        </mxCell>
        <mxCell id="g2Q_208xarCO59cymIMF-202" value="" style="endArrow=none;html=1;rounded=0;" edge="1" parent="1" source="g2Q_208xarCO59cymIMF-364">
          <mxGeometry width="50" height="50" relative="1" as="geometry">
            <mxPoint x="110" y="300" as="sourcePoint" />
            <mxPoint x="125" y="300" as="targetPoint" />
          </mxGeometry>
        </mxCell>
        <mxCell id="g2Q_208xarCO59cymIMF-203" value="" style="group;rotation=-90;" vertex="1" connectable="0" parent="1">
          <mxGeometry x="150" y="250" width="10" height="30" as="geometry" />
        </mxCell>
        <mxCell id="g2Q_208xarCO59cymIMF-204" value="" style="endArrow=none;html=1;rounded=0;" edge="1" parent="g2Q_208xarCO59cymIMF-203">
          <mxGeometry width="50" height="50" relative="1" as="geometry">
            <mxPoint x="10" y="20" as="sourcePoint" />
            <mxPoint x="20" y="20" as="targetPoint" />
          </mxGeometry>
        </mxCell>
        <mxCell id="g2Q_208xarCO59cymIMF-205" value="" style="curved=1;endArrow=none;html=1;rounded=0;endFill=0;" edge="1" parent="g2Q_208xarCO59cymIMF-203">
          <mxGeometry width="50" height="50" relative="1" as="geometry">
            <mxPoint x="10" y="20" as="sourcePoint" />
            <mxPoint y="20" as="targetPoint" />
            <Array as="points">
              <mxPoint x="10" y="10" />
              <mxPoint y="10" />
            </Array>
          </mxGeometry>
        </mxCell>
        <mxCell id="g2Q_208xarCO59cymIMF-206" value="" style="endArrow=none;html=1;rounded=0;" edge="1" parent="g2Q_208xarCO59cymIMF-203">
          <mxGeometry width="50" height="50" relative="1" as="geometry">
            <mxPoint x="-10" y="20" as="sourcePoint" />
            <mxPoint y="20" as="targetPoint" />
          </mxGeometry>
        </mxCell>
        <mxCell id="g2Q_208xarCO59cymIMF-207" value="" style="endArrow=none;html=1;rounded=0;" edge="1" parent="1">
          <mxGeometry width="50" height="50" relative="1" as="geometry">
            <mxPoint x="140" y="240" as="sourcePoint" />
            <mxPoint x="200" y="240" as="targetPoint" />
          </mxGeometry>
        </mxCell>
        <mxCell id="g2Q_208xarCO59cymIMF-208" value="" style="endArrow=none;html=1;rounded=0;" edge="1" parent="1">
          <mxGeometry width="50" height="50" relative="1" as="geometry">
            <mxPoint x="156" y="304.83" as="sourcePoint" />
            <mxPoint x="200" y="305" as="targetPoint" />
          </mxGeometry>
        </mxCell>
        <mxCell id="g2Q_208xarCO59cymIMF-209" value="" style="endArrow=none;html=1;rounded=0;" edge="1" parent="1">
          <mxGeometry width="50" height="50" relative="1" as="geometry">
            <mxPoint x="125" y="270" as="sourcePoint" />
            <mxPoint x="150" y="270" as="targetPoint" />
          </mxGeometry>
        </mxCell>
        <mxCell id="g2Q_208xarCO59cymIMF-212" value="" style="endArrow=none;html=1;rounded=0;" edge="1" parent="1" source="g2Q_208xarCO59cymIMF-362">
          <mxGeometry width="50" height="50" relative="1" as="geometry">
            <mxPoint x="170" y="479.99999999999994" as="sourcePoint" />
            <mxPoint x="200" y="480.33" as="targetPoint" />
          </mxGeometry>
        </mxCell>
        <mxCell id="g2Q_208xarCO59cymIMF-351" value="" style="endArrow=none;html=1;rounded=0;" edge="1" parent="1" source="g2Q_208xarCO59cymIMF-358" target="g2Q_208xarCO59cymIMF-345">
          <mxGeometry width="50" height="50" relative="1" as="geometry">
            <mxPoint x="155" y="440" as="sourcePoint" />
            <mxPoint x="155" y="200" as="targetPoint" />
          </mxGeometry>
        </mxCell>
        <mxCell id="g2Q_208xarCO59cymIMF-345" value="" style="ellipse;whiteSpace=wrap;html=1;aspect=fixed;" vertex="1" parent="1">
          <mxGeometry x="150" y="235" width="10" height="10" as="geometry" />
        </mxCell>
        <mxCell id="g2Q_208xarCO59cymIMF-353" value="" style="endArrow=none;html=1;rounded=0;" edge="1" parent="1" target="g2Q_208xarCO59cymIMF-352">
          <mxGeometry width="50" height="50" relative="1" as="geometry">
            <mxPoint x="125" y="420" as="sourcePoint" />
            <mxPoint x="125" y="180" as="targetPoint" />
          </mxGeometry>
        </mxCell>
        <mxCell id="g2Q_208xarCO59cymIMF-352" value="" style="ellipse;whiteSpace=wrap;html=1;aspect=fixed;" vertex="1" parent="1">
          <mxGeometry x="120" y="265" width="10" height="10" as="geometry" />
        </mxCell>
        <mxCell id="g2Q_208xarCO59cymIMF-355" value="" style="endArrow=none;html=1;rounded=0;" edge="1" parent="1" source="g2Q_208xarCO59cymIMF-356" target="g2Q_208xarCO59cymIMF-354">
          <mxGeometry width="50" height="50" relative="1" as="geometry">
            <mxPoint x="95" y="480" as="sourcePoint" />
            <mxPoint x="95" y="240" as="targetPoint" />
          </mxGeometry>
        </mxCell>
        <mxCell id="g2Q_208xarCO59cymIMF-354" value="" style="ellipse;whiteSpace=wrap;html=1;aspect=fixed;" vertex="1" parent="1">
          <mxGeometry x="90" y="235" width="10" height="10" as="geometry" />
        </mxCell>
        <mxCell id="g2Q_208xarCO59cymIMF-357" value="" style="endArrow=none;html=1;rounded=0;" edge="1" parent="1" target="g2Q_208xarCO59cymIMF-356">
          <mxGeometry width="50" height="50" relative="1" as="geometry">
            <mxPoint x="95" y="480" as="sourcePoint" />
            <mxPoint x="95" y="245" as="targetPoint" />
          </mxGeometry>
        </mxCell>
        <mxCell id="g2Q_208xarCO59cymIMF-356" value="" style="ellipse;whiteSpace=wrap;html=1;aspect=fixed;" vertex="1" parent="1">
          <mxGeometry x="90" y="355" width="10" height="10" as="geometry" />
        </mxCell>
        <mxCell id="g2Q_208xarCO59cymIMF-359" value="" style="endArrow=none;html=1;rounded=0;" edge="1" parent="1" target="g2Q_208xarCO59cymIMF-358">
          <mxGeometry width="50" height="50" relative="1" as="geometry">
            <mxPoint x="155" y="440" as="sourcePoint" />
            <mxPoint x="155" y="245" as="targetPoint" />
          </mxGeometry>
        </mxCell>
        <mxCell id="g2Q_208xarCO59cymIMF-358" value="" style="ellipse;whiteSpace=wrap;html=1;aspect=fixed;" vertex="1" parent="1">
          <mxGeometry x="150" y="300" width="10" height="10" as="geometry" />
        </mxCell>
        <mxCell id="g2Q_208xarCO59cymIMF-361" value="" style="endArrow=none;html=1;rounded=0;" edge="1" parent="1" target="g2Q_208xarCO59cymIMF-360">
          <mxGeometry width="50" height="50" relative="1" as="geometry">
            <mxPoint x="110" y="460" as="sourcePoint" />
            <mxPoint x="170" y="460" as="targetPoint" />
          </mxGeometry>
        </mxCell>
        <mxCell id="g2Q_208xarCO59cymIMF-360" value="" style="ellipse;whiteSpace=wrap;html=1;aspect=fixed;" vertex="1" parent="1">
          <mxGeometry x="165" y="455" width="10" height="10" as="geometry" />
        </mxCell>
        <mxCell id="g2Q_208xarCO59cymIMF-363" value="" style="endArrow=none;html=1;rounded=0;" edge="1" parent="1" target="g2Q_208xarCO59cymIMF-362">
          <mxGeometry width="50" height="50" relative="1" as="geometry">
            <mxPoint x="170" y="479.99999999999994" as="sourcePoint" />
            <mxPoint x="200" y="480.33" as="targetPoint" />
          </mxGeometry>
        </mxCell>
        <mxCell id="g2Q_208xarCO59cymIMF-362" value="" style="ellipse;whiteSpace=wrap;html=1;aspect=fixed;" vertex="1" parent="1">
          <mxGeometry x="165" y="475" width="10" height="10" as="geometry" />
        </mxCell>
        <mxCell id="g2Q_208xarCO59cymIMF-365" value="" style="endArrow=none;html=1;rounded=0;" edge="1" parent="1" target="g2Q_208xarCO59cymIMF-364">
          <mxGeometry width="50" height="50" relative="1" as="geometry">
            <mxPoint x="110" y="300" as="sourcePoint" />
            <mxPoint x="125" y="300" as="targetPoint" />
          </mxGeometry>
        </mxCell>
        <mxCell id="g2Q_208xarCO59cymIMF-364" value="" style="ellipse;whiteSpace=wrap;html=1;aspect=fixed;" vertex="1" parent="1">
          <mxGeometry x="120" y="295" width="10" height="10" as="geometry" />
        </mxCell>
        <mxCell id="g2Q_208xarCO59cymIMF-366" value="" style="ellipse;whiteSpace=wrap;html=1;aspect=fixed;" vertex="1" parent="1">
          <mxGeometry x="165" y="335" width="10" height="10" as="geometry" />
        </mxCell>
        <mxCell id="g2Q_208xarCO59cymIMF-370" value="" style="ellipse;whiteSpace=wrap;html=1;aspect=fixed;" vertex="1" parent="1">
          <mxGeometry x="875" y="405" width="10" height="10" as="geometry" />
        </mxCell>
        <mxCell id="g2Q_208xarCO59cymIMF-375" value="" style="endArrow=none;html=1;rounded=0;entryX=0.5;entryY=1;entryDx=0;entryDy=0;exitX=0.5;exitY=0;exitDx=0;exitDy=0;" edge="1" parent="1" source="g2Q_208xarCO59cymIMF-360" target="g2Q_208xarCO59cymIMF-366">
          <mxGeometry width="50" height="50" relative="1" as="geometry">
            <mxPoint x="130" y="400" as="sourcePoint" />
            <mxPoint x="180" y="350" as="targetPoint" />
          </mxGeometry>
        </mxCell>
        <mxCell id="g2Q_208xarCO59cymIMF-376" value="" style="endArrow=none;html=1;rounded=0;entryX=0.5;entryY=1;entryDx=0;entryDy=0;exitX=0.5;exitY=0;exitDx=0;exitDy=0;" edge="1" parent="1" source="g2Q_208xarCO59cymIMF-362" target="g2Q_208xarCO59cymIMF-360">
          <mxGeometry width="50" height="50" relative="1" as="geometry">
            <mxPoint x="180" y="465" as="sourcePoint" />
            <mxPoint x="180" y="355" as="targetPoint" />
          </mxGeometry>
        </mxCell>
        <mxCell id="g2Q_208xarCO59cymIMF-377" value="&#xa;1A&#xa;&#xa;" style="html=1;shape=mxgraph.electrical.electro-mechanical.fuse2;aspect=fixed;elSwitchState=on;rotation=-90;" vertex="1" parent="1">
          <mxGeometry x="406.5" y="590" width="75" height="20" as="geometry" />
        </mxCell>
      </root>
    </mxGraphModel>
  </diagram>
</mxfile>
